<svg width="132" height="20" viewBox="0 0 132 20" fill="none" xmlns="http://www.w3.org/2000/svg">
<path d="M10.9101 0.80841L13.1545 5.35469C13.3105 5.67089 13.6123 5.88999 13.9614 5.94061L18.9801 6.66969C19.8593 6.7975 20.21 7.87722 19.5741 8.49675L15.9426 12.0355C15.6902 12.2816 15.5748 12.6364 15.6346 12.9837L16.4917 17.9806C16.642 18.8558 15.723 19.523 14.9368 19.1101L10.4482 16.7511C10.136 16.5872 9.76285 16.5872 9.45071 16.7511L4.96203 19.1101C4.17587 19.5234 3.25688 18.8558 3.40714 17.9806L4.26428 12.9837C4.32406 12.6364 4.20866 12.2816 3.95629 12.0355L0.324755 8.49675C-0.311148 7.87681 0.0395948 6.79709 0.918735 6.66969L5.93747 5.94061C6.28656 5.88999 6.58832 5.67089 6.74439 5.35469L8.98873 0.80841C9.3814 0.0121055 10.5171 0.0121055 10.9101 0.80841Z" fill="#FBA229"/>
<path d="M38.8086 0.80841L41.0529 5.35469C41.209 5.67089 41.5107 5.88999 41.8598 5.94061L46.8786 6.66969C47.7577 6.7975 48.1084 7.87722 47.4725 8.49675L43.841 12.0355C43.5886 12.2816 43.4732 12.6364 43.533 12.9837L44.3902 17.9806C44.5404 18.8558 43.6214 19.523 42.8353 19.1101L38.3466 16.7511C38.0344 16.5872 37.6613 16.5872 37.3492 16.7511L32.8605 19.1101C32.0743 19.5234 31.1553 18.8558 31.3056 17.9806L32.1627 12.9837C32.2225 12.6364 32.1071 12.2816 31.8547 12.0355L28.2232 8.49675C27.5873 7.87681 27.938 6.79709 28.8172 6.66969L33.8359 5.94061C34.185 5.88999 34.4868 5.67089 34.6428 5.35469L36.8872 0.80841C37.2798 0.0121055 38.4155 0.0121055 38.8086 0.80841Z" fill="#FBA229"/>
<path d="M66.708 0.80841L68.9523 5.35469C69.1084 5.67089 69.4102 5.88999 69.7592 5.94061L74.778 6.66969C75.6571 6.7975 76.0079 7.87722 75.372 8.49675L71.7404 12.0355C71.4881 12.2816 71.3727 12.6364 71.4324 12.9837L72.2896 17.9806C72.4398 18.8558 71.5208 19.523 70.7347 19.1101L66.246 16.7511C65.9339 16.5872 65.5607 16.5872 65.2486 16.7511L60.7599 19.1101C59.9737 19.5234 59.0547 18.8558 59.205 17.9806L60.0621 12.9837C60.1219 12.6364 60.0065 12.2816 59.7541 12.0355L56.1226 8.49675C55.4867 7.87681 55.8374 6.79709 56.7166 6.66969L61.7353 5.94061C62.0844 5.88999 62.3862 5.67089 62.5422 5.35469L64.7866 0.80841C65.1792 0.0121055 66.3149 0.0121055 66.708 0.80841Z" fill="#FBA229"/>
<path d="M94.6064 0.80841L96.8508 5.35469C97.0068 5.67089 97.3086 5.88999 97.6577 5.94061L102.676 6.66969C103.556 6.7975 103.906 7.87722 103.27 8.49675L99.6389 12.0355C99.3865 12.2816 99.2711 12.6364 99.3309 12.9837L100.188 17.9806C100.338 18.8558 99.4193 19.523 98.6331 19.1101L94.1444 16.7511C93.8323 16.5872 93.4591 16.5872 93.147 16.7511L88.6583 19.1101C87.8722 19.5234 86.9532 18.8558 87.1034 17.9806L87.9606 12.9837C88.0203 12.6364 87.905 12.2816 87.6526 12.0355L84.021 8.49675C83.3851 7.87681 83.7359 6.79709 84.615 6.66969L89.6338 5.94061C89.9828 5.88999 90.2846 5.67089 90.4407 5.35469L92.685 0.80841C93.0777 0.0121055 94.2133 0.0121055 94.6064 0.80841Z" fill="#FBA229"/>
<path d="M122.506 0.80841L124.75 5.35469C124.906 5.67089 125.208 5.88999 125.557 5.94061L130.576 6.66969C131.455 6.7975 131.806 7.87722 131.17 8.49675L127.538 12.0355C127.286 12.2816 127.171 12.6364 127.23 12.9837L128.087 17.9806C128.238 18.8558 127.319 19.523 126.533 19.1101L122.044 16.7511C121.732 16.5872 121.359 16.5872 121.046 16.7511L116.558 19.1101C115.772 19.5234 114.853 18.8558 115.003 17.9806L115.86 12.9837C115.92 12.6364 115.804 12.2816 115.552 12.0355L111.92 8.49675C111.285 7.87681 111.635 6.79709 112.514 6.66969L117.533 5.94061C117.882 5.88999 118.184 5.67089 118.34 5.35469L120.584 0.80841C120.977 0.0121055 122.113 0.0121055 122.506 0.80841Z" fill="#FBA229"/>
</svg>
